<mxfile host="app.diagrams.net" agent="Mozilla/5.0 (Macintosh; Intel Mac OS X 10_15_7) AppleWebKit/537.36 (KHTML, like Gecko) Chrome/136.0.0.0 Safari/537.36" version="27.0.3">
  <diagram name="Page-1" id="55DpaImASN8ABSKDvFai">
    <mxGraphModel dx="1425" dy="1801" grid="1" gridSize="10" guides="1" tooltips="1" connect="1" arrows="1" fold="1" page="1" pageScale="1" pageWidth="850" pageHeight="1100" math="0" shadow="0">
      <root>
        <mxCell id="0" />
        <mxCell id="1" parent="0" />
        <mxCell id="xkSticxhR-FLgS-rG2Cj-8" style="edgeStyle=orthogonalEdgeStyle;rounded=0;orthogonalLoop=1;jettySize=auto;html=1;entryX=0;entryY=0.5;entryDx=0;entryDy=0;" edge="1" parent="1" target="xkSticxhR-FLgS-rG2Cj-5">
          <mxGeometry relative="1" as="geometry">
            <mxPoint x="485" y="255" as="sourcePoint" />
          </mxGeometry>
        </mxCell>
        <mxCell id="xkSticxhR-FLgS-rG2Cj-1" value="&lt;strong style=&quot;box-sizing: border-box; font-weight: bold; color: rgb(51, 51, 51); font-family: aktiv-grotesk, sans-serif; font-size: 14px; background-color: rgb(255, 255, 255);&quot;&gt;user_id&amp;nbsp;&lt;span style=&quot;white-space: pre;&quot;&gt;&#x9;&lt;span style=&quot;white-space: pre;&quot;&gt;&#x9;&lt;/span&gt;&lt;span style=&quot;white-space: pre;&quot;&gt;&#x9;&lt;/span&gt;&lt;/span&gt;&lt;span style=&quot;white-space: pre;&quot;&gt;&#x9;&lt;/span&gt;&lt;/strong&gt;&lt;span style=&quot;color: rgb(51, 51, 51); font-family: aktiv-grotesk, sans-serif; font-size: 14px; background-color: rgb(255, 255, 255);&quot;&gt;Primary Key, UUID, Indexed&lt;/span&gt;&lt;div&gt;&lt;strong style=&quot;box-sizing: border-box; font-weight: bold; color: rgb(51, 51, 51); font-family: aktiv-grotesk, sans-serif; font-size: 14px; background-color: rgb(255, 255, 255);&quot;&gt;&lt;strong style=&quot;box-sizing: border-box; font-weight: bold;&quot;&gt;first_name&lt;span style=&quot;white-space: pre;&quot;&gt;&#x9;&lt;/span&gt;&lt;span style=&quot;white-space: pre;&quot;&gt;&#x9;&lt;/span&gt;&lt;span style=&quot;white-space: pre;&quot;&gt;&#x9;&lt;/span&gt;&lt;/strong&gt;&lt;/strong&gt;&lt;span style=&quot;background-color: rgb(255, 255, 255); color: rgb(51, 51, 51); font-family: aktiv-grotesk, sans-serif; font-size: 14px;&quot;&gt;VARCHAR&lt;/span&gt;&lt;/div&gt;&lt;div&gt;&lt;strong style=&quot;box-sizing: border-box; font-weight: bold; color: rgb(51, 51, 51); font-family: aktiv-grotesk, sans-serif; font-size: 14px; background-color: rgb(255, 255, 255);&quot;&gt;&lt;strong style=&quot;box-sizing: border-box; font-weight: bold;&quot;&gt;&lt;strong style=&quot;box-sizing: border-box; font-weight: bold; color: rgb(51, 51, 51); background-color: rgb(255, 255, 255);&quot;&gt;last_name&lt;span style=&quot;white-space: pre;&quot;&gt;&#x9;&lt;/span&gt;&lt;span style=&quot;white-space: pre;&quot;&gt;&#x9;&lt;/span&gt;&lt;span style=&quot;white-space: pre;&quot;&gt;&#x9;&lt;/span&gt;&lt;/strong&gt;&lt;/strong&gt;&lt;/strong&gt;&lt;span style=&quot;background-color: rgb(255, 255, 255); color: rgb(51, 51, 51); font-family: aktiv-grotesk, sans-serif; font-size: 14px;&quot;&gt;VARCHAR&lt;/span&gt;&lt;/div&gt;&lt;div&gt;&lt;strong style=&quot;box-sizing: border-box; font-weight: bold; color: rgb(51, 51, 51); font-family: aktiv-grotesk, sans-serif; font-size: 14px; background-color: rgb(255, 255, 255);&quot;&gt;&lt;strong style=&quot;box-sizing: border-box; font-weight: bold;&quot;&gt;&lt;strong style=&quot;box-sizing: border-box; font-weight: bold; color: rgb(51, 51, 51); background-color: rgb(255, 255, 255);&quot;&gt;&lt;strong style=&quot;box-sizing: border-box; font-weight: bold;&quot;&gt;email&lt;span style=&quot;white-space: pre;&quot;&gt;&#x9;&lt;/span&gt;&lt;span style=&quot;white-space: pre;&quot;&gt;&#x9;&lt;/span&gt;&lt;span style=&quot;white-space: pre;&quot;&gt;&#x9;&lt;/span&gt;&lt;span style=&quot;white-space: pre;&quot;&gt;&#x9;&lt;/span&gt;&lt;/strong&gt;&lt;/strong&gt;&lt;/strong&gt;&lt;/strong&gt;&lt;span style=&quot;background-color: rgb(255, 255, 255); color: rgb(51, 51, 51); font-family: aktiv-grotesk, sans-serif; font-size: 14px;&quot;&gt;VARCHAR&lt;/span&gt;&lt;/div&gt;&lt;div&gt;&lt;strong style=&quot;box-sizing: border-box; font-weight: bold; color: rgb(51, 51, 51); font-family: aktiv-grotesk, sans-serif; font-size: 14px; background-color: rgb(255, 255, 255);&quot;&gt;&lt;strong style=&quot;box-sizing: border-box; font-weight: bold;&quot;&gt;&lt;strong style=&quot;box-sizing: border-box; font-weight: bold; color: rgb(51, 51, 51); background-color: rgb(255, 255, 255);&quot;&gt;&lt;strong style=&quot;box-sizing: border-box; font-weight: bold;&quot;&gt;&lt;strong style=&quot;box-sizing: border-box; font-weight: bold;&quot;&gt;password_hash&lt;span style=&quot;white-space: pre;&quot;&gt;&#x9;&lt;/span&gt;&lt;span style=&quot;white-space: pre;&quot;&gt;&#x9;&lt;/span&gt;&lt;/strong&gt;&lt;/strong&gt;&lt;/strong&gt;&lt;/strong&gt;&lt;/strong&gt;&lt;span style=&quot;background-color: rgb(255, 255, 255); color: rgb(51, 51, 51); font-family: aktiv-grotesk, sans-serif; font-size: 14px;&quot;&gt;VARCHAR&lt;/span&gt;&lt;/div&gt;&lt;div&gt;&lt;strong style=&quot;box-sizing: border-box; font-weight: bold; color: rgb(51, 51, 51); font-family: aktiv-grotesk, sans-serif; font-size: 14px; background-color: rgb(255, 255, 255);&quot;&gt;&lt;strong style=&quot;box-sizing: border-box; font-weight: bold;&quot;&gt;&lt;strong style=&quot;box-sizing: border-box; font-weight: bold; color: rgb(51, 51, 51); background-color: rgb(255, 255, 255);&quot;&gt;&lt;strong style=&quot;box-sizing: border-box; font-weight: bold;&quot;&gt;&lt;strong style=&quot;box-sizing: border-box; font-weight: bold;&quot;&gt;&lt;strong style=&quot;box-sizing: border-box; font-weight: bold; color: rgb(51, 51, 51); background-color: rgb(255, 255, 255);&quot;&gt;phone_number&lt;span style=&quot;white-space: pre;&quot;&gt;&#x9;&lt;/span&gt;&lt;span style=&quot;white-space: pre;&quot;&gt;&#x9;&lt;/span&gt;&lt;/strong&gt;&lt;/strong&gt;&lt;/strong&gt;&lt;/strong&gt;&lt;/strong&gt;&lt;/strong&gt;&lt;span style=&quot;background-color: rgb(255, 255, 255); color: rgb(51, 51, 51); font-family: aktiv-grotesk, sans-serif; font-size: 14px;&quot;&gt;VARCHAR&lt;/span&gt;&lt;/div&gt;&lt;div&gt;&lt;strong style=&quot;box-sizing: border-box; font-weight: bold; color: rgb(51, 51, 51); font-family: aktiv-grotesk, sans-serif; font-size: 14px; background-color: rgb(255, 255, 255);&quot;&gt;&lt;strong style=&quot;box-sizing: border-box; font-weight: bold;&quot;&gt;&lt;strong style=&quot;box-sizing: border-box; font-weight: bold; color: rgb(51, 51, 51); background-color: rgb(255, 255, 255);&quot;&gt;&lt;strong style=&quot;box-sizing: border-box; font-weight: bold;&quot;&gt;&lt;strong style=&quot;box-sizing: border-box; font-weight: bold;&quot;&gt;&lt;strong style=&quot;box-sizing: border-box; font-weight: bold; color: rgb(51, 51, 51); background-color: rgb(255, 255, 255);&quot;&gt;&lt;strong style=&quot;box-sizing: border-box; font-weight: bold;&quot;&gt;role&lt;span style=&quot;white-space: pre;&quot;&gt;&#x9;&lt;/span&gt;&lt;span style=&quot;white-space: pre;&quot;&gt;&#x9;&lt;/span&gt;&lt;span style=&quot;white-space: pre;&quot;&gt;&#x9;&lt;/span&gt;&lt;span style=&quot;white-space: pre;&quot;&gt;&#x9;&lt;/span&gt;&lt;span style=&quot;white-space: pre;&quot;&gt;&#x9;&lt;/span&gt;&lt;/strong&gt;&lt;/strong&gt;&lt;/strong&gt;&lt;/strong&gt;&lt;/strong&gt;&lt;/strong&gt;&lt;/strong&gt;&lt;span style=&quot;background-color: rgb(255, 255, 255); color: rgb(51, 51, 51); font-family: aktiv-grotesk, sans-serif; font-size: 14px;&quot;&gt;ENUM&lt;/span&gt;&lt;/div&gt;&lt;div&gt;&lt;strong style=&quot;box-sizing: border-box; font-weight: bold; color: rgb(51, 51, 51); font-family: aktiv-grotesk, sans-serif; font-size: 14px; background-color: rgb(255, 255, 255);&quot;&gt;&lt;strong style=&quot;box-sizing: border-box; font-weight: bold;&quot;&gt;&lt;strong style=&quot;box-sizing: border-box; font-weight: bold; color: rgb(51, 51, 51); background-color: rgb(255, 255, 255);&quot;&gt;&lt;strong style=&quot;box-sizing: border-box; font-weight: bold;&quot;&gt;&lt;strong style=&quot;box-sizing: border-box; font-weight: bold;&quot;&gt;&lt;strong style=&quot;box-sizing: border-box; font-weight: bold; color: rgb(51, 51, 51); background-color: rgb(255, 255, 255);&quot;&gt;&lt;strong style=&quot;box-sizing: border-box; font-weight: bold;&quot;&gt;&lt;strong style=&quot;box-sizing: border-box; font-weight: bold;&quot;&gt;created_at&lt;span style=&quot;white-space: pre;&quot;&gt;&#x9;&lt;/span&gt;&lt;span style=&quot;white-space: pre;&quot;&gt;&#x9;&lt;/span&gt;&lt;span style=&quot;white-space: pre;&quot;&gt;&#x9;&lt;/span&gt;&lt;/strong&gt;&lt;/strong&gt;&lt;/strong&gt;&lt;/strong&gt;&lt;/strong&gt;&lt;/strong&gt;&lt;/strong&gt;&lt;/strong&gt;&lt;span style=&quot;background-color: rgb(255, 255, 255); color: rgb(51, 51, 51); font-family: aktiv-grotesk, sans-serif; font-size: 14px;&quot;&gt;TIMESTAMP, DEFAULT CURRENT_TIMESTAMP&lt;/span&gt;&lt;/div&gt;" style="whiteSpace=wrap;html=1;aspect=fixed;align=left;" vertex="1" parent="1">
          <mxGeometry x="10" y="80" width="350" height="350" as="geometry" />
        </mxCell>
        <mxCell id="xkSticxhR-FLgS-rG2Cj-2" value="User&lt;div&gt;&lt;br&gt;&lt;/div&gt;" style="whiteSpace=wrap;html=1;" vertex="1" parent="1">
          <mxGeometry x="185" y="50" width="120" height="30" as="geometry" />
        </mxCell>
        <mxCell id="xkSticxhR-FLgS-rG2Cj-4" value="&lt;div&gt;Property&lt;/div&gt;" style="whiteSpace=wrap;html=1;" vertex="1" parent="1">
          <mxGeometry x="620" y="-190" width="120" height="30" as="geometry" />
        </mxCell>
        <mxCell id="xkSticxhR-FLgS-rG2Cj-5" value="&lt;strong style=&quot;box-sizing: border-box; font-weight: bold; color: rgb(51, 51, 51); font-family: aktiv-grotesk, sans-serif; font-size: 14px; background-color: rgb(255, 255, 255);&quot;&gt;&lt;strong style=&quot;box-sizing: border-box; font-weight: bold; color: rgb(51, 51, 51); background-color: rgb(255, 255, 255);&quot;&gt;property_id&lt;/strong&gt;&amp;nbsp;&lt;span style=&quot;white-space: pre;&quot;&gt;&#x9;&lt;span style=&quot;white-space: pre;&quot;&gt;&#x9;&lt;/span&gt;&lt;/span&gt;&lt;/strong&gt;&lt;span style=&quot;color: rgb(51, 51, 51); font-family: aktiv-grotesk, sans-serif; font-size: 14px; background-color: rgb(255, 255, 255);&quot;&gt;Primary Key, UUID, Indexed&lt;br&gt;&lt;/span&gt;&lt;div&gt;&lt;strong style=&quot;box-sizing: border-box; font-weight: bold; color: rgb(51, 51, 51); font-family: aktiv-grotesk, sans-serif; font-size: 14px; background-color: rgb(255, 255, 255);&quot;&gt;&lt;strong style=&quot;box-sizing: border-box; font-weight: bold;&quot;&gt;&lt;strong style=&quot;box-sizing: border-box; font-weight: bold; color: rgb(51, 51, 51); background-color: rgb(255, 255, 255);&quot;&gt;host_id&lt;/strong&gt;&lt;span style=&quot;white-space: pre;&quot;&gt;&#x9;&lt;/span&gt;&lt;span style=&quot;white-space: pre;&quot;&gt;&#x9;&lt;/span&gt;&lt;span style=&quot;white-space: pre;&quot;&gt;&#x9;&lt;/span&gt;&lt;/strong&gt;&lt;/strong&gt;&lt;span style=&quot;background-color: rgb(255, 255, 255); color: rgb(51, 51, 51); font-family: aktiv-grotesk, sans-serif; font-size: 14px;&quot;&gt;Foreign Key&lt;/span&gt;&lt;/div&gt;&lt;div&gt;&lt;strong style=&quot;box-sizing: border-box; font-weight: bold; color: rgb(51, 51, 51); font-family: aktiv-grotesk, sans-serif; font-size: 14px; background-color: rgb(255, 255, 255);&quot;&gt;&lt;strong style=&quot;box-sizing: border-box; font-weight: bold;&quot;&gt;&lt;strong style=&quot;box-sizing: border-box; font-weight: bold; color: rgb(51, 51, 51); background-color: rgb(255, 255, 255);&quot;&gt;&lt;strong style=&quot;box-sizing: border-box; font-weight: bold; color: rgb(51, 51, 51); background-color: rgb(255, 255, 255);&quot;&gt;name&lt;/strong&gt;&lt;span style=&quot;white-space: pre;&quot;&gt;&#x9;&lt;/span&gt;&lt;span style=&quot;white-space: pre;&quot;&gt;&#x9;&lt;/span&gt;&lt;span style=&quot;white-space: pre;&quot;&gt;&#x9;&lt;/span&gt;&lt;/strong&gt;&lt;/strong&gt;&lt;/strong&gt;&lt;span style=&quot;background-color: rgb(255, 255, 255); color: rgb(51, 51, 51); font-family: aktiv-grotesk, sans-serif; font-size: 14px;&quot;&gt;VARCHAR&lt;/span&gt;&lt;/div&gt;&lt;div&gt;&lt;strong style=&quot;box-sizing: border-box; font-weight: bold; color: rgb(51, 51, 51); font-family: aktiv-grotesk, sans-serif; font-size: 14px; background-color: rgb(255, 255, 255);&quot;&gt;&lt;strong style=&quot;box-sizing: border-box; font-weight: bold;&quot;&gt;&lt;strong style=&quot;box-sizing: border-box; font-weight: bold; color: rgb(51, 51, 51); background-color: rgb(255, 255, 255);&quot;&gt;&lt;strong style=&quot;box-sizing: border-box; font-weight: bold;&quot;&gt;&lt;strong style=&quot;box-sizing: border-box; font-weight: bold; color: rgb(51, 51, 51); background-color: rgb(255, 255, 255);&quot;&gt;description&lt;/strong&gt;&lt;span style=&quot;white-space: pre;&quot;&gt;&#x9;&lt;/span&gt;&lt;span style=&quot;white-space: pre;&quot;&gt;&#x9;&lt;/span&gt;&lt;/strong&gt;&lt;/strong&gt;&lt;/strong&gt;&lt;/strong&gt;&lt;span style=&quot;background-color: rgb(255, 255, 255); color: rgb(51, 51, 51); font-family: aktiv-grotesk, sans-serif; font-size: 14px;&quot;&gt;TEXT&lt;/span&gt;&lt;/div&gt;&lt;div&gt;&lt;strong style=&quot;box-sizing: border-box; font-weight: bold; color: rgb(51, 51, 51); font-family: aktiv-grotesk, sans-serif; font-size: 14px; background-color: rgb(255, 255, 255);&quot;&gt;&lt;strong style=&quot;box-sizing: border-box; font-weight: bold;&quot;&gt;&lt;strong style=&quot;box-sizing: border-box; font-weight: bold; color: rgb(51, 51, 51); background-color: rgb(255, 255, 255);&quot;&gt;&lt;strong style=&quot;box-sizing: border-box; font-weight: bold;&quot;&gt;&lt;strong style=&quot;box-sizing: border-box; font-weight: bold;&quot;&gt;&lt;strong style=&quot;box-sizing: border-box; font-weight: bold; color: rgb(51, 51, 51); background-color: rgb(255, 255, 255);&quot;&gt;location&lt;/strong&gt;&lt;span style=&quot;white-space: pre;&quot;&gt;&#x9;&lt;/span&gt;&lt;span style=&quot;white-space: pre;&quot;&gt;&#x9;&lt;span style=&quot;white-space: pre;&quot;&gt;&#x9;&lt;/span&gt;&lt;/span&gt;&lt;/strong&gt;&lt;/strong&gt;&lt;/strong&gt;&lt;/strong&gt;&lt;/strong&gt;&lt;span style=&quot;background-color: rgb(255, 255, 255); color: rgb(51, 51, 51); font-family: aktiv-grotesk, sans-serif; font-size: 14px;&quot;&gt;VARCHAR&lt;/span&gt;&lt;/div&gt;&lt;div&gt;&lt;strong style=&quot;box-sizing: border-box; font-weight: bold; color: rgb(51, 51, 51); font-family: aktiv-grotesk, sans-serif; font-size: 14px; background-color: rgb(255, 255, 255);&quot;&gt;&lt;strong style=&quot;box-sizing: border-box; font-weight: bold;&quot;&gt;&lt;strong style=&quot;box-sizing: border-box; font-weight: bold; color: rgb(51, 51, 51); background-color: rgb(255, 255, 255);&quot;&gt;&lt;strong style=&quot;box-sizing: border-box; font-weight: bold;&quot;&gt;&lt;strong style=&quot;box-sizing: border-box; font-weight: bold;&quot;&gt;&lt;strong style=&quot;box-sizing: border-box; font-weight: bold; color: rgb(51, 51, 51); background-color: rgb(255, 255, 255);&quot;&gt;&lt;strong style=&quot;box-sizing: border-box; font-weight: bold; color: rgb(51, 51, 51); background-color: rgb(255, 255, 255);&quot;&gt;price&lt;em style=&quot;box-sizing: border-box;&quot;&gt;per&lt;/em&gt;night&lt;/strong&gt;&lt;span style=&quot;white-space: pre;&quot;&gt;&#x9;&lt;/span&gt;&lt;span style=&quot;white-space: pre;&quot;&gt;&#x9;&lt;/span&gt;&lt;/strong&gt;&lt;/strong&gt;&lt;/strong&gt;&lt;/strong&gt;&lt;/strong&gt;&lt;/strong&gt;&lt;span style=&quot;background-color: rgb(255, 255, 255); color: rgb(51, 51, 51); font-family: aktiv-grotesk, sans-serif; font-size: 14px;&quot;&gt;DECIMAL&lt;/span&gt;&lt;/div&gt;&lt;div&gt;&lt;strong style=&quot;box-sizing: border-box; font-weight: bold; color: rgb(51, 51, 51); font-family: aktiv-grotesk, sans-serif; font-size: 14px; background-color: rgb(255, 255, 255);&quot;&gt;&lt;strong style=&quot;box-sizing: border-box; font-weight: bold;&quot;&gt;&lt;strong style=&quot;box-sizing: border-box; font-weight: bold; color: rgb(51, 51, 51); background-color: rgb(255, 255, 255);&quot;&gt;&lt;strong style=&quot;box-sizing: border-box; font-weight: bold;&quot;&gt;&lt;strong style=&quot;box-sizing: border-box; font-weight: bold;&quot;&gt;&lt;strong style=&quot;box-sizing: border-box; font-weight: bold; color: rgb(51, 51, 51); background-color: rgb(255, 255, 255);&quot;&gt;&lt;strong style=&quot;box-sizing: border-box; font-weight: bold;&quot;&gt;&lt;strong style=&quot;box-sizing: border-box; font-weight: bold; color: rgb(51, 51, 51); background-color: rgb(255, 255, 255);&quot;&gt;created_at&lt;/strong&gt;&lt;span style=&quot;white-space: pre;&quot;&gt;&#x9;&lt;/span&gt;&lt;span style=&quot;white-space: pre;&quot;&gt;&#x9;&lt;/span&gt;&lt;/strong&gt;&lt;/strong&gt;&lt;/strong&gt;&lt;/strong&gt;&lt;/strong&gt;&lt;/strong&gt;&lt;/strong&gt;&lt;span style=&quot;background-color: rgb(18, 18, 18); color: rgb(193, 193, 193); font-family: aktiv-grotesk, sans-serif; font-size: 14px;&quot;&gt;TIMESTAMP&lt;/span&gt;&lt;/div&gt;&lt;div&gt;&lt;strong style=&quot;box-sizing: border-box; font-weight: bold; color: rgb(51, 51, 51); font-family: aktiv-grotesk, sans-serif; font-size: 14px; background-color: rgb(255, 255, 255);&quot;&gt;&lt;strong style=&quot;box-sizing: border-box; font-weight: bold;&quot;&gt;&lt;strong style=&quot;box-sizing: border-box; font-weight: bold; color: rgb(51, 51, 51); background-color: rgb(255, 255, 255);&quot;&gt;&lt;strong style=&quot;box-sizing: border-box; font-weight: bold;&quot;&gt;&lt;strong style=&quot;box-sizing: border-box; font-weight: bold;&quot;&gt;&lt;strong style=&quot;box-sizing: border-box; font-weight: bold; color: rgb(51, 51, 51); background-color: rgb(255, 255, 255);&quot;&gt;&lt;strong style=&quot;box-sizing: border-box; font-weight: bold;&quot;&gt;&lt;strong style=&quot;box-sizing: border-box; font-weight: bold;&quot;&gt;&lt;strong style=&quot;box-sizing: border-box; font-weight: bold; color: rgb(51, 51, 51); background-color: rgb(255, 255, 255);&quot;&gt;updated_at&lt;/strong&gt;&lt;span style=&quot;white-space: pre;&quot;&gt;&#x9;&lt;/span&gt;&lt;span style=&quot;white-space: pre;&quot;&gt;&#x9;&lt;/span&gt;&lt;/strong&gt;&lt;/strong&gt;&lt;/strong&gt;&lt;/strong&gt;&lt;/strong&gt;&lt;/strong&gt;&lt;/strong&gt;&lt;/strong&gt;&lt;span style=&quot;background-color: rgb(255, 255, 255); color: rgb(51, 51, 51); font-family: aktiv-grotesk, sans-serif; font-size: 14px;&quot;&gt;TIMESTAMP&lt;/span&gt;&lt;/div&gt;" style="whiteSpace=wrap;html=1;aspect=fixed;align=left;" vertex="1" parent="1">
          <mxGeometry x="500" y="-160" width="350" height="350" as="geometry" />
        </mxCell>
        <mxCell id="xkSticxhR-FLgS-rG2Cj-6" value="&lt;div&gt;Booking&lt;/div&gt;" style="whiteSpace=wrap;html=1;" vertex="1" parent="1">
          <mxGeometry x="620" y="460" width="120" height="30" as="geometry" />
        </mxCell>
        <mxCell id="xkSticxhR-FLgS-rG2Cj-7" value="&lt;strong style=&quot;box-sizing: border-box; font-weight: bold; color: rgb(51, 51, 51); font-family: aktiv-grotesk, sans-serif; font-size: 14px; background-color: rgb(255, 255, 255);&quot;&gt;&lt;strong style=&quot;box-sizing: border-box; font-weight: bold; color: rgb(51, 51, 51); background-color: rgb(255, 255, 255);&quot;&gt;booking_id&lt;/strong&gt;&amp;nbsp;&lt;span style=&quot;white-space: pre;&quot;&gt;&#x9;&lt;span style=&quot;white-space: pre;&quot;&gt;&#x9;&lt;/span&gt;&lt;/span&gt;&lt;/strong&gt;&lt;span style=&quot;color: rgb(51, 51, 51); font-family: aktiv-grotesk, sans-serif; font-size: 14px; background-color: rgb(255, 255, 255);&quot;&gt;Primary Key, UUID, Indexed&lt;br&gt;&lt;/span&gt;&lt;div&gt;&lt;strong style=&quot;box-sizing: border-box; font-weight: bold; color: rgb(51, 51, 51); font-family: aktiv-grotesk, sans-serif; font-size: 14px; background-color: rgb(255, 255, 255);&quot;&gt;&lt;strong style=&quot;box-sizing: border-box; font-weight: bold;&quot;&gt;&lt;strong style=&quot;box-sizing: border-box; font-weight: bold; color: rgb(51, 51, 51); background-color: rgb(255, 255, 255);&quot;&gt;property_id&lt;/strong&gt;&lt;span style=&quot;white-space: pre;&quot;&gt;&#x9;&lt;/span&gt;&lt;span style=&quot;white-space: pre;&quot;&gt;&#x9;&lt;/span&gt;&lt;/strong&gt;&lt;/strong&gt;&lt;span style=&quot;background-color: rgb(255, 255, 255); color: rgb(51, 51, 51); font-family: aktiv-grotesk, sans-serif; font-size: 14px;&quot;&gt;Foreign Key&lt;/span&gt;&lt;/div&gt;&lt;div&gt;&lt;strong style=&quot;box-sizing: border-box; font-weight: bold; color: rgb(51, 51, 51); font-family: aktiv-grotesk, sans-serif; font-size: 14px; background-color: rgb(255, 255, 255);&quot;&gt;&lt;strong style=&quot;box-sizing: border-box; font-weight: bold;&quot;&gt;&lt;strong style=&quot;box-sizing: border-box; font-weight: bold; color: rgb(51, 51, 51); background-color: rgb(255, 255, 255);&quot;&gt;&lt;strong style=&quot;box-sizing: border-box; font-weight: bold; color: rgb(51, 51, 51); background-color: rgb(255, 255, 255);&quot;&gt;user_id&lt;/strong&gt;&lt;span style=&quot;white-space: pre;&quot;&gt;&#x9;&lt;/span&gt;&lt;span style=&quot;white-space: pre;&quot;&gt;&#x9;&lt;/span&gt;&lt;span style=&quot;white-space: pre;&quot;&gt;&#x9;&lt;/span&gt;&lt;/strong&gt;&lt;/strong&gt;&lt;/strong&gt;&lt;span style=&quot;background-color: rgb(18, 18, 18); color: rgb(193, 193, 193); font-family: aktiv-grotesk, sans-serif; font-size: 14px;&quot;&gt;Foreign Key&lt;/span&gt;&lt;/div&gt;&lt;div&gt;&lt;strong style=&quot;box-sizing: border-box; font-weight: bold; color: rgb(51, 51, 51); font-family: aktiv-grotesk, sans-serif; font-size: 14px; background-color: rgb(255, 255, 255);&quot;&gt;&lt;strong style=&quot;box-sizing: border-box; font-weight: bold;&quot;&gt;&lt;strong style=&quot;box-sizing: border-box; font-weight: bold; color: rgb(51, 51, 51); background-color: rgb(255, 255, 255);&quot;&gt;&lt;strong style=&quot;box-sizing: border-box; font-weight: bold;&quot;&gt;&lt;strong style=&quot;box-sizing: border-box; font-weight: bold; color: rgb(51, 51, 51); background-color: rgb(255, 255, 255);&quot;&gt;start_date&lt;/strong&gt;&lt;span style=&quot;white-space: pre;&quot;&gt;&#x9;&lt;/span&gt;&lt;span style=&quot;white-space: pre;&quot;&gt;&#x9;&lt;/span&gt;&lt;/strong&gt;&lt;/strong&gt;&lt;/strong&gt;&lt;/strong&gt;&lt;span style=&quot;background-color: rgb(255, 255, 255); color: rgb(51, 51, 51); font-family: aktiv-grotesk, sans-serif; font-size: 14px;&quot;&gt;DATE&lt;/span&gt;&lt;/div&gt;&lt;div&gt;&lt;strong style=&quot;box-sizing: border-box; font-weight: bold; color: rgb(51, 51, 51); font-family: aktiv-grotesk, sans-serif; font-size: 14px; background-color: rgb(255, 255, 255);&quot;&gt;&lt;strong style=&quot;box-sizing: border-box; font-weight: bold;&quot;&gt;&lt;strong style=&quot;box-sizing: border-box; font-weight: bold; color: rgb(51, 51, 51); background-color: rgb(255, 255, 255);&quot;&gt;&lt;strong style=&quot;box-sizing: border-box; font-weight: bold;&quot;&gt;&lt;strong style=&quot;box-sizing: border-box; font-weight: bold;&quot;&gt;&lt;strong style=&quot;box-sizing: border-box; font-weight: bold; color: rgb(51, 51, 51); background-color: rgb(255, 255, 255);&quot;&gt;end_date&lt;/strong&gt;&lt;span style=&quot;white-space: pre;&quot;&gt;&#x9;&lt;/span&gt;&lt;span style=&quot;white-space: pre;&quot;&gt;&#x9;&lt;/span&gt;DATE&lt;/strong&gt;&lt;/strong&gt;&lt;/strong&gt;&lt;/strong&gt;&lt;/strong&gt;&lt;/div&gt;&lt;div&gt;&lt;strong style=&quot;box-sizing: border-box; font-weight: bold; color: rgb(51, 51, 51); font-family: aktiv-grotesk, sans-serif; font-size: 14px; background-color: rgb(255, 255, 255);&quot;&gt;&lt;strong style=&quot;box-sizing: border-box; font-weight: bold;&quot;&gt;&lt;strong style=&quot;box-sizing: border-box; font-weight: bold; color: rgb(51, 51, 51); background-color: rgb(255, 255, 255);&quot;&gt;&lt;strong style=&quot;box-sizing: border-box; font-weight: bold;&quot;&gt;&lt;strong style=&quot;box-sizing: border-box; font-weight: bold;&quot;&gt;&lt;strong style=&quot;box-sizing: border-box; font-weight: bold; color: rgb(51, 51, 51); background-color: rgb(255, 255, 255);&quot;&gt;&lt;strong style=&quot;box-sizing: border-box; font-weight: bold; color: rgb(51, 51, 51); background-color: rgb(255, 255, 255);&quot;&gt;total_price&lt;/strong&gt;&lt;span style=&quot;white-space: pre;&quot;&gt;&#x9;&lt;/span&gt;&lt;span style=&quot;white-space: pre;&quot;&gt;&#x9;&lt;/span&gt;&lt;/strong&gt;&lt;/strong&gt;&lt;/strong&gt;&lt;/strong&gt;&lt;/strong&gt;&lt;/strong&gt;&lt;span style=&quot;background-color: rgb(255, 255, 255); color: rgb(51, 51, 51); font-family: aktiv-grotesk, sans-serif; font-size: 14px;&quot;&gt;DECIMAL&lt;/span&gt;&lt;/div&gt;&lt;div&gt;&lt;strong style=&quot;box-sizing: border-box; font-weight: bold; color: rgb(51, 51, 51); font-family: aktiv-grotesk, sans-serif; font-size: 14px; background-color: rgb(255, 255, 255);&quot;&gt;&lt;strong style=&quot;box-sizing: border-box; font-weight: bold;&quot;&gt;&lt;strong style=&quot;box-sizing: border-box; font-weight: bold; color: rgb(51, 51, 51); background-color: rgb(255, 255, 255);&quot;&gt;&lt;strong style=&quot;box-sizing: border-box; font-weight: bold;&quot;&gt;&lt;strong style=&quot;box-sizing: border-box; font-weight: bold;&quot;&gt;&lt;strong style=&quot;box-sizing: border-box; font-weight: bold; color: rgb(51, 51, 51); background-color: rgb(255, 255, 255);&quot;&gt;&lt;strong style=&quot;box-sizing: border-box; font-weight: bold;&quot;&gt;&lt;strong style=&quot;box-sizing: border-box; font-weight: bold; color: rgb(51, 51, 51); background-color: rgb(255, 255, 255);&quot;&gt;status&lt;/strong&gt;&lt;span style=&quot;white-space: pre;&quot;&gt;&#x9;&lt;/span&gt;&lt;span style=&quot;white-space: pre;&quot;&gt;&#x9;&lt;span style=&quot;white-space: pre;&quot;&gt;&#x9;&lt;/span&gt;&lt;/span&gt;&lt;/strong&gt;&lt;/strong&gt;&lt;/strong&gt;&lt;/strong&gt;&lt;/strong&gt;&lt;/strong&gt;&lt;/strong&gt;&lt;span style=&quot;background-color: rgb(255, 255, 255); color: rgb(51, 51, 51); font-family: aktiv-grotesk, sans-serif; font-size: 14px;&quot;&gt;ENUM&lt;/span&gt;&lt;/div&gt;&lt;div&gt;&lt;strong style=&quot;box-sizing: border-box; font-weight: bold; color: rgb(51, 51, 51); font-family: aktiv-grotesk, sans-serif; font-size: 14px; background-color: rgb(255, 255, 255);&quot;&gt;&lt;strong style=&quot;box-sizing: border-box; font-weight: bold;&quot;&gt;&lt;strong style=&quot;box-sizing: border-box; font-weight: bold; color: rgb(51, 51, 51); background-color: rgb(255, 255, 255);&quot;&gt;&lt;strong style=&quot;box-sizing: border-box; font-weight: bold;&quot;&gt;&lt;strong style=&quot;box-sizing: border-box; font-weight: bold;&quot;&gt;&lt;strong style=&quot;box-sizing: border-box; font-weight: bold; color: rgb(51, 51, 51); background-color: rgb(255, 255, 255);&quot;&gt;&lt;strong style=&quot;box-sizing: border-box; font-weight: bold;&quot;&gt;&lt;strong style=&quot;box-sizing: border-box; font-weight: bold;&quot;&gt;&lt;strong style=&quot;box-sizing: border-box; font-weight: bold; color: rgb(51, 51, 51); background-color: rgb(255, 255, 255);&quot;&gt;created_at&lt;/strong&gt;&lt;span style=&quot;white-space: pre;&quot;&gt;&#x9;&lt;/span&gt;&lt;span style=&quot;white-space: pre;&quot;&gt;&#x9;&lt;/span&gt;&lt;/strong&gt;&lt;/strong&gt;&lt;/strong&gt;&lt;/strong&gt;&lt;/strong&gt;&lt;/strong&gt;&lt;/strong&gt;&lt;/strong&gt;&lt;span style=&quot;background-color: rgb(255, 255, 255); color: rgb(51, 51, 51); font-family: aktiv-grotesk, sans-serif; font-size: 14px;&quot;&gt;TIMESTAMP&lt;/span&gt;&lt;/div&gt;" style="whiteSpace=wrap;html=1;aspect=fixed;align=left;" vertex="1" parent="1">
          <mxGeometry x="505" y="490" width="350" height="350" as="geometry" />
        </mxCell>
        <mxCell id="xkSticxhR-FLgS-rG2Cj-9" value="" style="shape=table;startSize=0;container=1;collapsible=1;childLayout=tableLayout;fixedRows=1;rowLines=0;fontStyle=0;align=center;resizeLast=1;strokeColor=none;fillColor=none;collapsible=0;whiteSpace=wrap;html=1;" vertex="1" parent="1">
          <mxGeometry x="430" y="270" width="180" height="30" as="geometry" />
        </mxCell>
        <mxCell id="xkSticxhR-FLgS-rG2Cj-10" value="" style="shape=tableRow;horizontal=0;startSize=0;swimlaneHead=0;swimlaneBody=0;fillColor=none;collapsible=0;dropTarget=0;points=[[0,0.5],[1,0.5]];portConstraint=eastwest;top=0;left=0;right=0;bottom=0;" vertex="1" parent="xkSticxhR-FLgS-rG2Cj-9">
          <mxGeometry width="180" height="30" as="geometry" />
        </mxCell>
        <mxCell id="xkSticxhR-FLgS-rG2Cj-11" value="" style="shape=partialRectangle;connectable=0;fillColor=none;top=0;left=0;bottom=0;right=0;editable=1;overflow=hidden;" vertex="1" parent="xkSticxhR-FLgS-rG2Cj-10">
          <mxGeometry width="30" height="30" as="geometry">
            <mxRectangle width="30" height="30" as="alternateBounds" />
          </mxGeometry>
        </mxCell>
        <mxCell id="xkSticxhR-FLgS-rG2Cj-12" value="" style="shape=partialRectangle;connectable=0;fillColor=none;top=0;left=0;bottom=0;right=0;align=left;spacingLeft=6;overflow=hidden;" vertex="1" parent="xkSticxhR-FLgS-rG2Cj-10">
          <mxGeometry x="30" width="150" height="30" as="geometry">
            <mxRectangle width="150" height="30" as="alternateBounds" />
          </mxGeometry>
        </mxCell>
        <mxCell id="xkSticxhR-FLgS-rG2Cj-14" value="" style="edgeStyle=orthogonalEdgeStyle;rounded=0;orthogonalLoop=1;jettySize=auto;html=1;" edge="1" parent="1" source="xkSticxhR-FLgS-rG2Cj-1">
          <mxGeometry relative="1" as="geometry">
            <mxPoint x="360" y="255" as="sourcePoint" />
            <mxPoint x="500" y="255" as="targetPoint" />
          </mxGeometry>
        </mxCell>
        <mxCell id="xkSticxhR-FLgS-rG2Cj-15" value="" style="endArrow=none;html=1;rounded=0;" edge="1" parent="1">
          <mxGeometry width="50" height="50" relative="1" as="geometry">
            <mxPoint x="370" y="280" as="sourcePoint" />
            <mxPoint x="370" y="280" as="targetPoint" />
            <Array as="points">
              <mxPoint x="370" y="260" />
              <mxPoint x="370" y="230" />
            </Array>
          </mxGeometry>
        </mxCell>
        <mxCell id="xkSticxhR-FLgS-rG2Cj-16" value="" style="endArrow=none;html=1;rounded=0;" edge="1" parent="1">
          <mxGeometry width="50" height="50" relative="1" as="geometry">
            <mxPoint x="490" y="280" as="sourcePoint" />
            <mxPoint x="490" y="280" as="targetPoint" />
            <Array as="points">
              <mxPoint x="490" y="260" />
              <mxPoint x="490" y="230" />
            </Array>
          </mxGeometry>
        </mxCell>
        <mxCell id="xkSticxhR-FLgS-rG2Cj-18" style="edgeStyle=orthogonalEdgeStyle;rounded=0;orthogonalLoop=1;jettySize=auto;html=1;entryX=0.45;entryY=-0.1;entryDx=0;entryDy=0;entryPerimeter=0;" edge="1" parent="1" source="xkSticxhR-FLgS-rG2Cj-5" target="xkSticxhR-FLgS-rG2Cj-6">
          <mxGeometry relative="1" as="geometry" />
        </mxCell>
        <mxCell id="xkSticxhR-FLgS-rG2Cj-19" value="" style="endArrow=none;html=1;rounded=0;" edge="1" parent="1">
          <mxGeometry width="50" height="50" relative="1" as="geometry">
            <mxPoint x="630" y="220" as="sourcePoint" />
            <mxPoint x="740" y="220" as="targetPoint" />
            <Array as="points">
              <mxPoint x="630" y="220" />
            </Array>
          </mxGeometry>
        </mxCell>
        <mxCell id="xkSticxhR-FLgS-rG2Cj-20" value="" style="endArrow=none;html=1;rounded=0;" edge="1" parent="1">
          <mxGeometry width="50" height="50" relative="1" as="geometry">
            <mxPoint x="630" y="440" as="sourcePoint" />
            <mxPoint x="740" y="440" as="targetPoint" />
            <Array as="points">
              <mxPoint x="630" y="440" />
            </Array>
          </mxGeometry>
        </mxCell>
      </root>
    </mxGraphModel>
  </diagram>
</mxfile>
